<svg width="26" height="26" viewBox="0 0 26 26" fill="none" xmlns="http://www.w3.org/2000/svg">
<path fill-rule="evenodd" clip-rule="evenodd" d="M17.7125 9.07829L22.0458 5.97996C22.9017 5.36246 24.05 6.21829 23.6817 7.22579L19.175 19.8466C19.0233 20.2691 18.6117 20.5616 18.1567 20.5616H7.83249C7.37749 20.5616 6.96583 20.28 6.81416 19.8466L2.30749 7.22579C1.94999 6.21829 3.09833 5.36246 3.96499 5.96913L8.29833 9.06746C8.87249 9.48996 9.68499 9.24079 9.93416 8.56913L11.9925 3.11996C12.3392 2.17746 13.6717 2.17746 14.0183 3.11996L16.0658 8.57996C16.315 9.24079 17.1383 9.48996 17.7125 9.07829ZM10.2917 15.9791H15.7083C16.1525 15.9791 16.5208 15.6108 16.5208 15.1666C16.5208 14.7225 16.1525 14.3541 15.7083 14.3541H10.2917C9.84749 14.3541 9.47916 14.7225 9.47916 15.1666C9.47916 15.6108 9.84749 15.9791 10.2917 15.9791ZM7.58325 23.8333H18.4166C18.8608 23.8333 19.2291 23.4649 19.2291 23.0208C19.2291 22.5766 18.8608 22.2083 18.4166 22.2083H7.58325C7.13909 22.2083 6.77075 22.5766 6.77075 23.0208C6.77075 23.4649 7.13909 23.8333 7.58325 23.8333Z" fill="#2B2828"/>
</svg>
