<svg width="26" height="26" viewBox="0 0 26 26" fill="none" xmlns="http://www.w3.org/2000/svg">
<path d="M24.2234 8.95925L23.9093 5.95842C23.4543 2.68675 21.9701 1.35425 18.7959 1.35425H16.2393H14.6359H11.3426H9.73928H7.13928C3.95428 1.35425 2.48094 2.68675 2.01511 5.99092L1.72261 8.97008C1.61428 10.1292 1.92844 11.2559 2.61094 12.1334C3.43428 13.2059 4.70178 13.8126 6.11011 13.8126C7.47511 13.8126 8.78594 13.1301 9.60928 12.0359C10.3459 13.1301 11.6026 13.8126 13.0001 13.8126C14.3976 13.8126 15.6218 13.1626 16.3693 12.0792C17.2034 13.1517 18.4926 13.8126 19.8359 13.8126C21.2768 13.8126 22.5768 13.1734 23.3893 12.0467C24.0393 11.1801 24.3318 10.0859 24.2234 8.95925Z" fill="#01060F"/>
<path d="M12.2957 18.0484C10.9199 18.1893 9.87988 19.3593 9.87988 20.7459V23.7143C9.87988 24.0068 10.1182 24.2451 10.4107 24.2451H15.5782C15.8707 24.2451 16.109 24.0068 16.109 23.7143V21.1251C16.1199 18.8609 14.7874 17.7884 12.2957 18.0484Z" fill="#01060F"/>
<path d="M23.1508 15.6001V18.8284C23.1508 21.8184 20.7241 24.2451 17.7341 24.2451C17.4416 24.2451 17.2033 24.0068 17.2033 23.7142V21.1251C17.2033 19.7384 16.7808 18.6551 15.9575 17.9184C15.2316 17.2576 14.2458 16.9326 13.0216 16.9326C12.7508 16.9326 12.48 16.9434 12.1875 16.9759C10.2591 17.1709 8.79662 18.7959 8.79662 20.7459V23.7142C8.79662 24.0068 8.55829 24.2451 8.26579 24.2451C5.27579 24.2451 2.84912 21.8184 2.84912 18.8284V15.6218C2.84912 14.8634 3.59662 14.3543 4.30079 14.6034C4.59329 14.7009 4.88579 14.7768 5.18912 14.8201C5.31912 14.8418 5.45995 14.8634 5.58995 14.8634C5.76329 14.8851 5.93662 14.8959 6.10995 14.8959C7.36662 14.8959 8.60162 14.4301 9.57662 13.6284C10.5083 14.4301 11.7216 14.8959 13 14.8959C14.2891 14.8959 15.4808 14.4518 16.4125 13.6501C17.3875 14.4409 18.6008 14.8959 19.8358 14.8959C20.0308 14.8959 20.2258 14.8851 20.41 14.8634C20.54 14.8526 20.6591 14.8418 20.7783 14.8201C21.1141 14.7768 21.4175 14.6793 21.7208 14.5818C22.425 14.3434 23.1508 14.8634 23.1508 15.6001Z" fill="#01060F"/>
</svg>
